# xmcd CD database file
#
# Track frame offsets:
#	150
#	15037
#	28550
#	45455
#	58420
#	74730
#	92575
#	109315
#	123535
#	139202
#	154190
#	169315
#
# Disc length: 2455 seconds
#
# Revision: 0
# Processed by: cddbd v1.4PL0 Copyright (c) Steve Scherf et al.
# Submitted via: CDex 1.50Beta7
#
DISCID=a609950c
DTITLE=รวมศิลปิน - ชัวร์ ชะ ขะ ช่า
DYEAR=2545
DGENRE=Country
TTITLE0=เล่นกับไฟ
TTITLE1=สาวชัยภูมิ
TTITLE2=สาวโรงงานคนสวย-สาวโรงงานคนจน
TTITLE3=สาวเชียงใหม่
TTITLE4=สาวชุมแพ
TTITLE5=เงินน่ะมีไหม
TTITLE6=หนุ่มสุรินทร์รักสาวสุราษฎร์
TTITLE7=ผู้ชายในฝัน
TTITLE8=คนสวยผิดนัด-มาตามนัด
TTITLE9=จะขอก็รีบขอ
TTITLE10=เสียงแคนแทนใจ
TTITLE11=รู้ว่าเขาหลอก
EXTD=YEAR: 2545
EXTT0=
EXTT1=
EXTT2=
EXTT3=
EXTT4=
EXTT5=
EXTT6=
EXTT7=
EXTT8=
EXTT9=
EXTT10=
EXTT11=
PLAYORDER=
